<svg width="12" height="12" viewBox="0 0 12 12" fill="none" xmlns="http://www.w3.org/2000/svg">
<path d="M5.71114 6.64457L5.98973 5.51671C4.78381 5.44048 3.70635 4.92059 3.39415 4.23742C3.36126 4.41785 3.31355 4.58329 3.23985 4.70745C2.99672 5.14761 2.50111 5.14872 2.00919 5.14981C2.41604 5.1489 2.56267 4.55865 2.56106 3.83346C2.55945 3.10827 2.41019 2.51868 2.00334 2.51959C2.49526 2.51849 2.99087 2.51739 3.23596 2.95647C3.3102 3.0803 3.35865 3.24552 3.39234 3.42581C3.63157 2.89171 4.34074 2.45803 5.20577 2.25696L4.58903 1.01084C5.32875 1.0092 6.06847 1.00756 6.56095 1.25821C6.97936 1.4677 7.22064 1.85794 7.43608 2.27454C8.51666 2.53516 9.40195 3.12688 9.40349 3.81825C9.40506 4.52465 8.48176 5.13542 7.37273 5.38588C7.06666 5.79988 6.76793 6.18381 6.51318 6.39104C6.20306 6.64348 5.95895 6.64402 5.71114 6.64457ZM7.55293 3.25874C7.45484 3.25896 7.36085 3.29876 7.29164 3.36938C7.22244 3.44 7.18368 3.53566 7.1839 3.63531C7.18413 3.73496 7.22331 3.83045 7.29282 3.90076C7.36234 3.97107 7.45651 4.01045 7.5546 4.01023C7.65269 4.01002 7.74668 3.97022 7.81589 3.8996C7.88509 3.82898 7.92385 3.73332 7.92363 3.63367C7.9234 3.53401 7.88422 3.43853 7.81471 3.36821C7.74519 3.2979 7.65102 3.25852 7.55293 3.25874Z" fill="#4374D9"/>
<path d="M10.9783 8.24941C10.9526 6.766 9.73718 5.60759 8.36706 5.66937C7.45387 5.72324 6.6905 6.30718 6.31771 7.11264C6.0809 7.64941 5.59475 8.00026 5.06753 8.00939L4.99724 8.01061C4.39972 8.02096 3.95136 8.52335 3.96256 9.16996C3.98892 10.6914 5.75292 11.0413 8.56477 10.9926C8.56477 10.9926 11.0251 10.95 10.9783 8.24941ZM4.66552 9.15778C4.66157 8.92957 4.79953 8.77499 5.01041 8.77133L5.08071 8.77011C5.85397 8.75672 6.58351 8.24946 6.95696 7.48204C7.2276 6.86859 7.78338 6.47848 8.41539 6.42949C8.87232 6.42157 9.36769 6.60323 9.7251 6.93946C10.0825 7.2757 10.2668 7.76712 10.2747 8.22356C10.307 10.0873 8.83277 10.227 8.55159 10.2319C5.07192 10.2922 4.67409 9.65225 4.66552 9.15778ZM9.03575 9.76693L8.03733 6.93065C8.14146 6.85276 8.28139 6.81228 8.45713 6.80924C8.70317 6.80498 8.91537 6.87739 9.16339 6.98724L9.86547 8.95355C9.66249 9.41364 9.35011 9.64734 9.03575 9.76693ZM6.38053 8.70955L6.75047 9.76847C6.22258 9.73957 5.83398 9.63216 5.58662 9.56035L5.40232 9.06892C5.7538 9.06283 6.06815 8.94324 6.38053 8.70955ZM8.4747 9.85274C8.05292 9.86005 7.66629 9.86675 7.3493 9.83419L6.79572 8.32188C6.96817 8.12865 7.13995 7.89739 7.24078 7.62931C7.30844 7.47595 7.41125 7.32198 7.51472 7.20604L8.4747 9.85274Z" fill="#CC3D3D"/>
<path d="M3.8 8.1875C3.8 8.5356 3.6525 8.86944 3.38995 9.11558C3.1274 9.36172 2.7713 9.5 2.4 9.5C2.0287 9.5 1.6726 9.36172 1.41005 9.11558C1.1475 8.86944 1 8.5356 1 8.1875C1 7.463 1.6272 6 2.4 6C3.1728 6 3.8 7.463 3.8 8.1875Z" fill="#F3AD60"/>
</svg>
